<?xml version="1.0" encoding="UTF-8"?>
<svg width="301px" height="162px" viewBox="0 0 301 162" version="1.1" xmlns="http://www.w3.org/2000/svg" xmlns:xlink="http://www.w3.org/1999/xlink">
    <!-- Generator: Sketch 58 (84663) - https://sketch.com -->
    <title>Graphics</title>
    <desc>Created with Sketch.</desc>
    <g id="13.Tools&amp;Contact" stroke="none" stroke-width="1" fill="none" fill-rule="evenodd">
        <g id="13.ToolsAndContact_Desktop/111_Contactus_LandingPage" transform="translate(-1072.000000, -1007.000000)">
            <g id="Graphics" transform="translate(1229.463177, 1105.134414) scale(-1, 1) rotate(-331.000000) translate(-1229.463177, -1105.134414) translate(1079.463177, 1040.634414)">
                <path d="M168.566224,100.684719 C170.300013,99.2344236 171.544261,97.6883535 171.860422,96.6861444 C172.244575,95.8686427 171.30289,93.7479271 169.5861,91.6682576 C167.896506,89.6227932 166.030133,88.3127382 165.142842,88.4871842 C164.112767,88.5897994 162.341583,89.5441215 160.573799,91.0217814 C158.84341,92.4686567 157.595762,94.0181473 157.283,95.0169359 C156.898847,95.8344376 157.840532,97.9551532 159.560722,100.041664 C161.246917,102.080287 163.113289,103.393763 163.997181,103.219317 C165.027256,103.113281 166.79844,102.158959 168.566224,100.684719" id="Fill-1" fill="#C4131A"></path>
                <path d="M296.70841,16.7082266 C298.277126,15.0862658 299.343309,13.4235009 299.557225,12.3999995 C299.849237,11.5533155 298.68798,9.55731766 296.759342,7.69053258 C294.868055,5.84754987 292.874904,4.74924098 292.009054,5.01786762 C291.000594,5.23208885 289.343596,6.36440111 287.740926,8.01016427 C286.175605,9.63212507 285.112818,11.2948899 284.898902,12.3183914 C284.60689,13.1684757 285.764751,15.1644735 287.693389,17.0312586 C289.588071,18.8742413 291.584618,19.9691499 292.447072,19.7005233 C293.452137,19.4897024 295.109135,18.3539898 296.70841,16.7082266" id="Fill-3" fill="#ED028C"></path>
                <path d="M163.170091,28.3430332 C165.440102,26.4362457 167.076279,24.4033283 167.496378,23.0975128 C167.993864,22.0216988 166.759362,19.2394213 164.504091,16.50537 C162.293041,13.8232545 159.842461,12.1019522 158.670604,12.3319538 C157.329234,12.4655031 155.000262,13.7193828 152.682345,15.6521383 C150.412334,17.5589257 148.779842,19.5955529 148.359742,20.9013684 C147.858571,21.9771824 149.096759,24.7594599 151.348345,27.4935112 C153.563079,30.1756267 156.01366,31.9006387 157.178146,31.6669274 C158.523201,31.5333781 160.855859,30.2794984 163.170091,28.3430332" id="Fill-6" fill="#68C079"></path>
                <path d="M295.740481,30.0993846 C296.799642,27.120001 297.18858,24.3846624 296.84826,22.9678452 C296.712826,21.7137247 294.000677,19.866439 290.368273,18.6326556 C286.791432,17.4225988 283.537548,17.2056698 282.575621,18.056438 C281.394916,18.9173748 279.922508,21.334099 278.84251,24.3677149 C277.779876,27.343709 277.387465,30.0824371 277.734731,31.4992543 C277.870165,32.7465958 280.578841,34.5938814 284.21819,35.8276649 C287.788086,37.0445007 291.04197,37.2546507 292.003897,36.4072719 C293.191547,35.5463351 294.660483,33.1330005 295.740481,30.0993846" id="Fill-8" fill="#68C079"></path>
                <path d="M280.604374,16.018176 C279.64537,12.8058172 278.251389,10.2026416 277.056058,9.18400762 C276.145004,8.18534687 272.617238,8.21530669 268.681896,9.33047786 C264.804778,10.4223469 261.84899,12.1933053 261.547589,13.5048798 C261.071511,14.9629245 261.318113,17.9356046 262.290817,21.207883 C263.260096,24.413584 264.660928,27.0200885 265.845983,28.0387225 C266.757037,29.0440409 270.281378,29.0074234 274.223571,27.8955811 C278.097263,26.8003831 281.056476,25.0294248 281.354453,23.7211792 C281.833955,22.2631345 281.583929,19.2871255 280.604374,16.018176" id="Fill-10" fill="#ED028C"></path>
                <path d="M269.455506,54.9995843 C270.712428,49.7610833 270.891487,45.0306643 270.076945,42.6759669 C269.638076,40.5700545 264.807001,37.8859797 258.553989,36.3862617 C252.388751,34.9180798 246.943259,35.1002885 245.482701,36.701623 C243.664026,38.3695336 241.627672,42.7250231 240.346173,48.0651405 C239.092762,53.3071455 238.913703,58.0340604 239.728245,60.3852538 C240.163603,62.4981743 244.994678,65.182249 251.258223,66.678463 C257.412928,68.1466449 262.865442,67.9644362 264.318978,66.3666058 C266.137653,64.7021991 268.177518,60.3397016 269.455506,54.9995843" id="Fill-12" fill="#1D90D0"></path>
                <path d="M230.063086,74.0277337 C229.395324,65.9576057 227.399218,59.1192896 225.090771,56.1383047 C223.450086,53.3332928 215.14255,51.7530541 205.327163,52.5343748 C195.673332,53.3121761 187.839692,56.1101489 186.482626,59.084095 C184.640895,62.3149618 183.754136,69.4911463 184.436258,77.7055723 C185.111201,85.7792198 187.107307,92.610497 189.412164,95.5950014 C191.056439,98.4035327 199.363975,99.980252 209.175771,99.1883729 C218.826013,98.42113 226.670424,95.6196376 228.020308,92.6492111 C229.86204,89.4218638 230.748799,82.2491987 230.063086,74.0277337" id="Fill-14" fill="#2E2E79"></path>
                <path d="M253.674645,40.2761349 C256.088456,34.4847657 257.217885,29.0564918 256.794349,26.1662536 C256.735811,23.6463726 251.987389,19.5325035 245.434634,16.4970272 C238.995511,13.5160152 233.000584,12.5864914 231.086064,14.1369081 C228.772112,15.6800629 225.676512,20.2913725 223.221381,26.1880393 C220.804128,31.9830395 219.678142,37.4113134 220.098235,40.2979206 C220.160216,42.8214326 224.912082,46.9389326 231.461393,49.9707779 C237.897072,52.9554209 243.891999,53.8813137 245.809963,52.330897 C248.123915,50.7877423 251.216071,46.1764326 253.674645,40.2761349" id="Fill-16" fill="#ED028C"></path>
                <path d="M213.792709,32.9368062 C215.437369,27.8958193 215.970295,23.2812188 215.32796,20.9223396 C215.045615,18.8316711 210.401038,15.8469667 204.242387,13.9351054 C198.179026,12.0507529 192.705061,11.8409983 191.1204,13.3058417 C189.175748,14.7981939 186.811108,18.9141975 185.127625,24.0445879 C183.479436,29.0821361 182.957098,33.6967366 183.595903,36.0624931 C183.874719,38.149723 188.519296,41.1309887 194.681477,43.0462886 C200.748366,44.9306412 206.222331,45.1438343 207.803464,43.6824295 C209.748116,42.1832002 212.109226,38.0671966 213.792709,32.9368062" id="Fill-18" fill="#1D90D0"></path>
                <path d="M190.356835,73.9803142 C193.235051,65.4687118 194.297084,57.6430131 193.356129,53.5986693 C192.999812,50.0234409 185.631303,44.7423382 175.77203,41.2239723 C166.068431,37.7518072 157.240058,37.1511972 154.621296,39.5714065 C151.414438,42.0342626 147.415379,48.9323921 144.478354,57.5932585 C141.600138,66.0941991 140.551942,73.9270056 141.479059,77.9749033 C141.842296,81.5465778 149.203886,86.8205727 159.063158,90.3460465 C168.770217,93.8253194 177.60205,94.4259293 180.210433,92.0057201 C183.42421,89.53931 187.41635,82.6376266 190.356835,73.9803142" id="Fill-20" fill="#1D90D0"></path>
                <path d="M265.835065,12.9891937 C265.114944,8.00399581 263.600935,3.82766573 262.037747,2.0576328 C260.903118,0.372209477 255.591791,-0.321589281 249.419832,0.50420046 C243.356769,1.31983705 238.509129,3.33016125 237.760907,5.21526324 C236.710585,7.27973759 236.415511,11.7741998 237.14617,16.8473917 C237.86629,21.8393583 239.376787,26.012304 240.947,27.782337 C242.081629,29.4677603 247.389444,30.161559 253.561403,29.3323849 C259.624465,28.5235171 264.472105,26.5131929 265.216815,24.6213221 C266.27065,22.5534634 266.565723,18.0691544 265.835065,12.9891937" id="Fill-22" fill="#1D90D0"></path>
                <path d="M159.386909,42.6672227 C158.539217,32.2266425 156.024515,23.379117 153.109022,19.5214959 C151.055407,15.8960464 140.581621,13.8422203 128.217375,14.8637755 C116.058844,15.8567558 106.191566,19.4857772 104.481994,23.3326827 C102.151727,27.5117722 101.038023,36.7950661 101.899902,47.4285273 C102.751141,57.8762512 105.26939,66.7202048 108.17779,70.5813979 C110.234951,74.2104192 120.708737,76.2571015 133.072984,75.2391182 C145.227967,74.2425661 155.10234,70.6099728 156.808364,66.7666392 C159.138631,62.5911215 160.252335,53.3078277 159.386909,42.6672227" id="Fill-24" fill="#ED028C"></path>
                <path d="M132.913256,108.170723 C137.07322,98.8821475 139.028118,90.1719168 138.295478,85.5346391 C138.191836,81.4932323 129.996992,74.8895806 118.692896,70.0174597 C107.588935,65.2329668 97.2497792,63.7432895 93.9475392,66.2249166 C89.9448242,68.7065437 84.609062,76.1093634 80.3740465,85.5731955 C76.2105081,94.8652765 74.2627583,103.572002 74.998972,108.212785 C75.0847445,112.257697 83.2867365,118.857843 94.5872589,123.722954 C105.694793,128.517962 116.033949,130.004134 119.336189,127.519002 C123.331756,125.037375 128.671092,117.641566 132.913256,108.170723" id="Fill-26" fill="#2E2E79"></path>
                <path d="M92.0904206,65.3643346 C90.7523779,49.0615724 86.7489827,35.2486737 82.1373862,29.2347501 C78.8638324,23.5750034 62.2456278,20.3767861 42.6150382,21.9670403 C23.3135929,23.5254186 7.650622,29.1851653 4.93518233,35.1849218 C1.23946535,41.7017766 -0.527895909,56.1946949 0.838768063,72.7949657 C2.18396611,89.0941862 6.18020605,102.903543 10.7918025,108.921008 C14.0725116,114.580755 30.6907162,117.782514 50.3141505,116.188718 C69.6155958,114.63034 85.2928773,108.974135 87.997584,102.970837 C91.693301,96.453982 93.4606623,81.9610636 92.0904206,65.3643346" id="Fill-28" fill="#ED028C"></path>
                <path d="M231.073629,58.8447121 C232.444364,53.1536509 232.637673,48.0190957 231.751967,45.4640682 C231.273967,43.1820437 226.015969,40.2630123 219.20447,38.6354948 C212.508957,37.0394776 206.572621,37.2389798 204.987489,38.9819985 C203.012224,40.788018 200.794446,45.5200688 199.399108,51.3126311 C198.031888,57.0001923 197.838579,62.1382476 198.727799,64.693275 C199.202284,66.9822996 204.460283,69.901331 211.268267,71.5183484 C217.967294,73.1178656 223.900116,72.9218635 225.481733,71.1858448 C227.467542,69.3728253 229.681806,64.6442745 231.073629,58.8447121" id="Fill-32" fill="#C4131A"></path>
            </g>
        </g>
    </g>
</svg>